<svg xmlns="http://www.w3.org/2000/svg" xmlns:xlink="http://www.w3.org/1999/xlink" version="1.1" x="0px" y="0px" viewBox="0 0 100 100" enable-background="new 0 0 100 100" xml:space="preserve"><g><path d="M61.607,93.739H32.782c-0.502-0.014-2.849-0.156-4.08-1.608c-0.97-1.143-2.716-12.081-3.588-14.304   C21.751,69.25,18.48,51.48,18.48,51.48c-2.564-15.337,2.673-23.229,2.896-23.557c0.469-0.685,1.402-0.859,2.085-0.393   c0.685,0.467,0.86,1.4,0.394,2.084c-0.045,0.066-5.042,7.373-2.416,21.371c1.625,8.661,6.037,24.852,6.361,25.504   c1.153,2.316,2.978,13.394,3.203,13.717c0.25,0.294,1.25,0.516,1.824,0.533h28.592c0.308-0.097,1.328-0.499,2.179-1.754   c0.573-0.846,0.604-2.5,0.636-4.252c0.043-2.306,0.091-4.92,1.358-7.139c0.083-0.145,13.261-19.325,13.486-20.347   c0.171-0.774,0.188-2.637,0.077-3.517c-0.625-4.921-4.358-17.797-6.219-23.597c-0.337-1.052-1.019-1.674-1.784-1.55   c-8.122,1.323-18.1,3.325-21.735,4.058c1.364,6.786,9.197,7.734,14.698,7.069c0.807-0.097,1.581,0.369,1.746,1.171l1.482,7.18   c0.062,0.168,0.094,0.349,0.09,0.537c-0.016,0.788-0.73,1.435-1.517,1.475c-2.606,0.132-11.316,1.378-14,11.884   c-0.204,0.803-1.025,1.289-1.824,1.082c-0.803-0.205-1.287-1.021-1.082-1.824c2.759-10.8,11.19-13.358,15.103-13.963l-0.904-4.38   c-1.269,0.151-16.552,1.002-16.989-11.229c-0.028-0.783,0.42-1.499,1.187-1.656c0.13-0.027,13.125-2.69,23.256-4.365   c0.982-0.161,2.374-0.076,3.35,0.65c0.975,0.725,1.464,1.953,1.781,2.943c1.89,5.892,5.688,19.021,6.339,24.137   c0.134,1.058,0.15,3.295-0.124,4.54C81.57,59.884,68.27,78.974,68.171,79.125c-0.86,1.508-0.899,3.62-0.937,5.661   c-0.041,2.21-0.079,4.297-1.153,5.881c-1.701,2.51-3.945,2.997-4.195,3.044C61.793,93.73,61.7,93.739,61.607,93.739z"/><path d="M27.94,52.056c-3.798,0-6.772-3.5-6.772-7.969V22.251c0-4.617,2.849-7.969,6.772-7.969c3.861,0,6.772,3.426,6.772,7.969   v21.836C34.712,48.481,31.674,52.056,27.94,52.056z M27.94,17.283c-2.592,0-3.772,2.576-3.772,4.969v21.836   c0,2.833,1.622,4.969,3.772,4.969c2.08,0,3.772-2.229,3.772-4.969V22.251C31.712,19.419,30.09,17.283,27.94,17.283z"/><path d="M39.363,48.697c-4.147,0-7.651-3.783-7.651-8.261V17.567c0-4.709,3.214-8.261,7.476-8.261c4.315,0,7.827,3.706,7.827,8.261   v22.869C47.015,44.992,43.582,48.697,39.363,48.697z M39.188,12.306c-2.938,0-4.476,2.647-4.476,5.261v22.869   c0,2.852,2.13,5.261,4.651,5.261s4.651-2.409,4.651-5.261V17.567C44.015,14.617,41.895,12.306,39.188,12.306z"/><path d="M51.29,46.722c-3.364,0-7.275-3.615-7.275-8.276V14.522c0-4.632,3.206-8.261,7.3-8.261c4.298,0,7.3,3.397,7.3,8.261v13.919   c0,0.829-0.672,1.5-1.5,1.5s-1.5-0.671-1.5-1.5V14.522c0-2.427-1.126-5.261-4.3-5.261c-2.411,0-4.3,2.311-4.3,5.261v23.923   c0,3.011,2.594,5.276,4.275,5.276c1.83,0,3.019-0.865,3.856-2.805c0.327-0.761,1.208-1.112,1.972-0.783   c0.761,0.329,1.11,1.211,0.782,1.972C56.254,45.921,53.397,46.722,51.29,46.722z"/><path d="M62.405,48.701c-1.682,0-2.91-0.523-3.74-1.079c-1.797-1.201-2.925-3.332-3.095-5.845   c-0.057-0.826,0.568-1.542,1.395-1.598c0.837-0.06,1.542,0.568,1.598,1.396c0.107,1.578,0.752,2.873,1.77,3.553   c1.334,0.892,3.12,0.573,4.384,0.148c0.79-0.265,1.637,0.159,1.9,0.943c0.264,0.785-0.158,1.636-0.943,1.9   C64.435,48.537,63.349,48.701,62.405,48.701z"/><path d="M57.114,30.645c-0.828,0-1.5-0.671-1.5-1.5V16.513c0-4.632,3.206-8.261,7.3-8.261c4.161,0,7.299,3.551,7.299,8.261v10.522   c0,0.829-0.672,1.5-1.5,1.5s-1.5-0.671-1.5-1.5V16.513c0-2.999-1.848-5.261-4.299-5.261c-2.411,0-4.3,2.311-4.3,5.261v12.632   C58.614,29.973,57.942,30.645,57.114,30.645z"/></g></svg>