<svg xmlns:dc="http://purl.org/dc/elements/1.1/" xmlns:cc="http://creativecommons.org/ns#" xmlns:rdf="http://www.w3.org/1999/02/22-rdf-syntax-ns#" xmlns:svg="http://www.w3.org/2000/svg" xmlns="http://www.w3.org/2000/svg" xmlns:sodipodi="http://sodipodi.sourceforge.net/DTD/sodipodi-0.dtd" xmlns:inkscape="http://www.inkscape.org/namespaces/inkscape" version="1.1" x="0px" y="0px" viewBox="0 0 100 100"><g transform="translate(0,-952.36218)"><path style="text-indent:0;text-transform:none;direction:ltr;block-progression:tb;baseline-shift:baseline;color:#000000;enable-background:accumulate;" d="m 49.750716,958.36217 c -4.5514,0 -6.843,2.76159 -7.5522,5.405 -1.5494,-1.7527 -3.6365,-2.79212 -5.8596,-2.85795 -7.7534,0 -9.3746,5.92385 -9.824,11.90682 -6.108,1.21562 -10.5202,6.30948 -10.5149,12.50929 0.1993,3.96024 0.4451,7.9445 0.7095,11.93479 0.8622,11.13638 3.1123,19.65948 6.0145,28.95068 2.3532,6.2919 4.7548,12.5848 7.1068,18.8533 0.142,0.3784 0.402,0.7116 0.7346,0.9418 0.3325,0.2302 0.7361,0.3563 1.1407,0.3563 l 37.1694,0 c 0.3909,0 0.7812,-0.1176 1.1069,-0.3334 0.3258,-0.2158 0.5859,-0.5291 0.738,-0.8887 13.9116,-32.9082 13.2751,-28.8469 13.2751,-63.97423 0,-8.73436 -6.4104,-12.99541 -12.7459,-9.87505 -1.3178,-6.66834 -8.3535,-10.25402 -13.5618,-6.55589 -0.9405,-3.50535 -3.7788,-6.31026 -7.9368,-6.37276 z m -0.0115,3.99977 c 3.0466,0 4.7569,1.92075 4.8264,7.9408 0.0012,2.92528 -0.1251,5.89598 -0.1299,8.69326 0,1.0166 0.885,2.02836 2.0027,2.02836 1.2051,0 2.0026,-1.08527 2.0026,-2.02836 0,-2.45622 0.1246,-5.99191 0.1293,-8.52921 0,-2.18323 1.2072,-3.2282 3.8861,-3.2282 5.2716,0.27379 5.0512,5.81757 5.1164,9.74048 -0.0601,3.43371 -0.1662,6.81585 -0.3801,10.14647 0,1.05186 0.8423,2.02836 2.0026,2.02836 1.2838,0 2.0027,-0.95832 2.0027,-2.02836 0,-2.2485 0.3683,-6.95503 0.3904,-9.25948 0.0506,-2.40682 1.7659,-3.63409 3.8085,-3.25481 2.1714,0.43314 4.5928,2.39252 4.5928,6.55462 0,34.73793 0.9501,29.59803 -12.4415,61.19653 l -34.4545,0 -6.5553,-17.4709 c -3.4521,-9.9002 -5.7085,-20.2712 -5.7134,-26.46401 l -0.8406,-12.5825 c 0,-4.31247 2.7065,-7.75573 6.6591,-9.01731 l -0.4046,18.37365 c 0,0.99575 0.8683,2.05083 1.9577,2.06942 1.0037,0 2.0467,-1.09766 2.0467,-1.98162 0.0826,-7.48901 0.2352,-16.03171 0.3452,-23.12962 0,-6.26099 3.4458,-7.31683 5.6318,-7.25209 2.1865,0.0648 4.549,1.89592 4.608,6.19653 0.0398,2.77079 0.0701,5.48218 0.0748,7.97704 0.0073,1.19383 0.9581,2.02837 2.0026,2.02837 1.232,-0.0479 2.047,-0.79895 2.0027,-2.02837 0,-2.69928 0.015,-6.18354 0.015,-9.04448 0,-5.712 1.6687,-7.68379 4.8158,-7.67457 z" fill="#000000" fill-opacity="1" fill-rule="evenodd" stroke="none" marker="none" visibility="visible" display="inline" overflow="visible"/></g></svg>