<svg xmlns="http://www.w3.org/2000/svg" xmlns:xlink="http://www.w3.org/1999/xlink" version="1.1" x="0px" y="0px" viewBox="0 0 100 100" enable-background="new 0 0 100 100" xml:space="preserve"><path d="M57.152,94.58H34.363c-0.548-0.006-2.363-0.107-3.398-1.177c-1.056-1.089-1.145-3.464-1.146-3.488  c-0.057-1.746-6.435-17.403-7.864-27.973c-0.063-0.459-1.822-12.87-5.951-31.836c-0.4-1.836-0.691-6.216,3.491-7.282  c3.681-0.938,5.776,1.417,6.578,4.17l3.137,12.688l-3.076-22.328c-0.255-1.507,0.007-3.044,0.746-4.283  c0.809-1.355,2.12-2.273,3.703-2.515c3.433-0.525,5.92,1.9,6.419,4.852l4.239,24.858l0.322-29.013  c0.025-1.365,1.063-5.833,5.623-5.833c3.143,0,5.465,2.656,5.402,6.042l0.818,33.405l4.414-27.12  c0.501-2.967,2.687-4.922,5.439-4.955c2.164-0.026,3.862,1.192,4.663,2.458c0.753,1.188,1.023,2.7,0.76,4.255  c-0.109,0.904-2.918,23.786-3.97,29.763c-0.165,0.935-0.444,5.254-0.397,7.711c1.362-1.859,4.103-6.34,4.103-6.34  c3.414-5.943,7.332-8.957,11.646-8.957c0.702,0,1.415,0.084,2.121,0.25c0.921,0.217,1.574,0.79,1.968,1.554  c0.994,1.931-11.183,26.08-14.693,32.253c-2.036,3.581-6.822,8.562-6.906,8.656c-0.582,0.942-0.611,2.284-0.638,3.583  c-0.033,1.547-0.066,3.147-1.021,4.379C59.459,94.207,57.226,94.58,57.152,94.58z M20.335,25.704  c-2.038,0.545-1.685,2.763-1.434,3.624c4.708,19.116,5.969,31.781,6.027,32.212c1.379,10.193,7.816,25.995,7.89,28.278  c0.02,0.589,0.227,1.365,0.353,1.559c0.101,0.058,0.734,0.195,1.215,0.204h22.607c0.243-0.065,0.949-0.312,1.53-1.063  c0.347-0.448,0.371-1.544,0.393-2.604c0.033-1.583,0.075-3.554,1.162-5.217c0.124-0.188,4.923-5.186,6.774-8.441  c3.459-6.083,14.32-29.479,14.32-29.479c-3.503-0.992-7.313,2.412-10.153,7.356c0,0-3.797,6.323-5.457,8.066  c-0.223,0.234-0.625,0.514-1.271,0.514c-0.024,0-2.496-0.13-2.815-1.741c-0.404-2.043,0.046-8.882,0.282-10.223  c1.038-5.901,3.928-29.439,3.957-29.676c0.149-0.891-0.058-2.853-1.974-3.238c-1.481-0.298-2.679,0.733-2.961,2.404l-4.807,29.534  c-0.054,0.326-0.349,1.281-1.876,1.365c-3.199,0.176-3.621-1.39-3.63-1.771L49.59,11.472c0.027-1.528-0.723-3.02-2.459-3.052  c0,0,0,0-0.001,0c-1.753,0-2.54,1.446-2.566,2.878l-0.388,35.055c-0.026,0.914-0.642,1.819-3.256,1.883  c-0.752,0.019-1.443-0.481-1.573-1.245l-5.3-31.081c-0.199-1.18-0.961-2.723-2.961-2.396c-2.174,0.355-2.128,2.535-1.984,3.385  l4.395,31.9c0.058,0.422,0.069,2.033-3.304,2.364c-0.681,0.067-1.346-0.488-1.517-1.151L23.18,27.773  C22.997,27.161,22.193,25.206,20.335,25.704z"/><path d="M51.492,69.763c-1.258,0-1.671-1.122-1.441-1.917c2.444-8.452,10.32-10.188,14.142-9.921c0.826,0.057,1.45,0.773,1.393,1.6  c-0.057,0.826-0.761,1.461-1.597,1.393c-0.38-0.025-8.686-0.434-11.056,7.761C52.743,69.335,52.143,69.763,51.492,69.763z"/><path d="M28.496,53.9c-0.419,0-0.836-0.175-1.133-0.516c-0.543-0.625-0.477-1.573,0.148-2.116c1.769-1.537,5.634-2.971,6.975-2.971  c0.002,0,0.005,0,0.008,0c0.828,0.003,1.497,0.678,1.494,1.506c-0.003,0.825-0.672,1.491-1.495,1.494  c-0.699,0.042-3.805,1.186-5.014,2.236C29.195,53.779,28.845,53.9,28.496,53.9z"/><path d="M38.534,50.656c-0.533,0-1.048-0.284-1.32-0.785c-0.395-0.728-0.125-1.639,0.603-2.034c1.458-0.792,5.679-1.285,7.529-0.88  c0.809,0.177,1.322,0.977,1.145,1.786s-0.977,1.319-1.786,1.145c-1.306-0.286-4.742,0.198-5.457,0.586  C39.021,50.597,38.775,50.656,38.534,50.656z"/><path d="M56.158,51.005c-0.204,0-0.411-0.042-0.608-0.13c-1.223-0.544-4.685-0.762-5.462-0.526c-0.793,0.24-1.63-0.208-1.871-1  c-0.24-0.793,0.208-1.63,1-1.871c1.586-0.481,5.822-0.113,7.551,0.656c0.757,0.337,1.098,1.223,0.761,1.98  C57.281,50.673,56.732,51.005,56.158,51.005z"/></svg>