<svg xmlns="http://www.w3.org/2000/svg" xmlns:xlink="http://www.w3.org/1999/xlink" version="1.1" x="0px" y="0px" viewBox="0 0 100 100" style="enable-background:new 0 0 100 100;" xml:space="preserve"><path d="M81.3,95c-0.6,0-1.2-0.4-1.4-1C77,85,79,68.4,80.4,57.5c0.5-4,0.9-7.1,0.9-8.6c0-1.3-1-2.5-3.8-4.6L52.8,29.4  c-3.3-1.8-4.9-1.2-6.5-0.6c-0.3,0.1-0.5,0.2-0.7,0.3l-20.4,7.9C25,37,22.1,38,19.1,38.8c0.5,1.5,1.4,3.6,2.9,4.4  c0.7,0.4,1.5,0.5,2.4,0.2c0.9-0.3,2.1-0.6,3.5-0.9c5.2-1.4,13.2-3.4,18.2-6.5c0.6-0.4,1.4-0.3,1.9,0.3c4.3,4.8,9.2,8,15.4,11.3  c0.5,0.3,0.8,0.7,0.8,1.3l0.2,5.4c0,0.4-0.1,0.8-0.4,1.1l-6.5,6.4c-0.4,0.4-1,0.5-1.5,0.4c-0.3-0.1-7.7-2.6-12.7-7.9  c-4.3-4.5-10-7.4-14.2-7c-1.5,0.1-2.8,0.7-3.9,1.6l8,6.4c0,0,0.1,0.1,0.1,0.1l8.3,8c2.6,2.7,3.8,6.1,4.9,9.5c0.9,2.6,1.7,5,3.1,6.9  c0.4,0.5,0.8,1,1.3,1.5c2,2.1,4.7,4.9,6.7,12c0.2,0.8-0.2,1.6-1,1.8c-0.8,0.2-1.6-0.2-1.8-1c-1.8-6.4-4.1-8.8-5.9-10.8  c-0.6-0.6-1.1-1.1-1.6-1.8c-1.7-2.3-2.7-5-3.6-7.7c-1.1-3.2-2.1-6.2-4.2-8.3l-8.2-7.9L22,50.1c-0.6-0.5-0.8-1.4-0.3-2  c0.4-0.6,0.9-1.1,1.3-1.5c-0.9-0.1-1.8-0.3-2.6-0.8c-3.4-2.1-4.5-7.2-4.6-7.8c-0.2-0.8,0.4-1.6,1.2-1.8c3.3-0.7,7.2-2,7.2-2  l20.4-7.9c0,0,0.1,0,0.1,0c0.2-0.1,0.4-0.1,0.7-0.2c1.8-0.6,4.5-1.6,9,0.9l24.7,14.8c0,0,0.1,0.1,0.1,0.1c3.1,2.4,5,4.4,5,7.1  c0,1.7-0.4,4.9-0.9,9C82,68.5,80,84.7,82.7,93c0.3,0.8-0.2,1.6-1,1.9C81.6,95,81.4,95,81.3,95z M32.3,44.4c5,1,9.9,4.5,13,7.7  c3.5,3.7,8.7,6,10.7,6.8l5.3-5.3l-0.1-3.9c-5.7-3.1-10.4-6.2-14.6-10.6C42.4,41.4,37,43.1,32.3,44.4z"/></svg>