<svg xmlns="http://www.w3.org/2000/svg" viewBox="0 0 60 60" x="0px" y="0px"><path d="M44.08,4.092a4.36,4.36,0,0,0-2.7-2.129A4.543,4.543,0,0,0,35.933,5l-4.6,15.166L24.823,3.041a4.8,4.8,0,0,0-2.6-2.676A4.37,4.37,0,0,0,18.771.343,4.548,4.548,0,0,0,16.1,3.979a4.479,4.479,0,0,0-3.413.076,4.566,4.566,0,0,0-2.327,5.927l.028-.011c.288.757,1.332,3.206,5.106,12.05A6.008,6.008,0,0,0,10,28V40.232a10.981,10.981,0,0,0,3.844,8.354l2.632,2.268A8.7,8.7,0,0,1,19,57a3.008,3.008,0,0,0,3.017,3H39a3,3,0,0,0,3-3V54.211a10.881,10.881,0,0,1,1.832-6.051A12.869,12.869,0,0,0,46,41V29.127l3.838-14.866a4.818,4.818,0,0,0-.521-3.708,4.338,4.338,0,0,0-2.75-2.036,4.434,4.434,0,0,0-2.321.084l.241-.789A4.813,4.813,0,0,0,44.08,4.092ZM19.562,2.18a2.378,2.378,0,0,1,1.88.027,2.784,2.784,0,0,1,1.513,1.549L29.891,22H24.685L18.232,5.388A2.565,2.565,0,0,1,19.562,2.18ZM12.206,9.211a.169.169,0,0,0-.011-.027,2.571,2.571,0,0,1,1.292-3.3,2.509,2.509,0,0,1,3.28,1.256L22.538,22H17.661C15.687,17.374,12.336,9.52,12.206,9.211Zm33.91,1.254A2.358,2.358,0,0,1,47.6,11.581a2.807,2.807,0,0,1,.3,2.169l-3.872,15A1.056,1.056,0,0,0,44,29V41a10.877,10.877,0,0,1-1.832,6.049A12.87,12.87,0,0,0,40,54.211V57a1,1,0,0,1-1,1H22a1,1,0,0,1-1-1,10.718,10.718,0,0,0-3.158-7.6l-2.694-2.327A8.987,8.987,0,0,1,12,40.232V28a4,4,0,0,1,4-4H30a3,3,0,0,1,0,6H19a1,1,0,0,0-.449,1.894A10.511,10.511,0,0,1,24,41a1,1,0,0,0,2,0,12.065,12.065,0,0,0-3.944-9H30a4.988,4.988,0,0,0,2.635-9.231L37.847,5.581A2.558,2.558,0,0,1,40.874,3.9a2.378,2.378,0,0,1,1.459,1.17,2.8,2.8,0,0,1,.24,2.163l-5.53,18.15a1,1,0,0,0,.666,1.248A1.016,1.016,0,0,0,38,26.67a1,1,0,0,0,.957-.709L43.2,12.029A2.55,2.55,0,0,1,46.116,10.465Z"/></svg>